<svg version="1.1" id="Layer_1" xmlns="http://www.w3.org/2000/svg" xmlns:xlink="http://www.w3.org/1999/xlink" x="0px" y="0px"
	 viewBox="-200.2 199.1 200 200" style="enable-background:new -200.2 199.1 200 200;" xml:space="preserve">
<style type="text/css">
	.st0{fill:#E74C3C;}
	.st1{fill:#FFFFFF;}
</style>
<circle class="st0" cx="-100.2" cy="299.1" r="100"/>
<g>
	<g>
		<path class="st1" d="M-58.1,260.8c-5.6-1.4-11.3,2.1-12.7,7.7c-1.4,5.6,2.1,11.3,7.7,12.7c5.6,1.4,11.3-2.1,12.7-7.7
			C-49,267.8-52.4,262.1-58.1,260.8z"/>
		<path class="st1" d="M-63.6,284.4c-1.6-0.6-3.2-0.8-4.7-0.5l0-0.1l-16.9,2.6l-10.6-8.9c0.9-0.5,1.7-1.3,2-2.2l1-2.4l14.5,1.7
			c0,0,0.8-0.6,1.4-2.4c0.7-1.8,0.4-2.7,0.4-2.7l-37.1-24.4c-2.5,3.3-4.5,7.1-6,11.2c-1.6,4.3-2.4,8.7-2.6,13.1l14.2,1.7l0.4,2.5
			c0.3,1.6,1.6,3.1,3.1,3.6c0.3,0.1,0.6,0.2,0.9,0.2l1,0.1l-1.3,1.3l13.8,15.4c0.8,0.8,2,1.3,3.1,1.3c0.2,0,0.4,0,0.6,0l16.9-2.4
			l-8.5,2.3l-8.3,19.8c0,0.1-0.1,0.3-0.1,0.4l-14.9,23.1c-0.7,1.1-1,2.4-0.9,3.8l3.2,24.1l11-1.5l-2.9-22.1l11.9-18l-3.2,6
			l-1.3,12.3c0,0.8,0.1,1.6,0.4,2.4l8.7,22.7l10.3-4l-8.3-21.6l2.2-20.5c0.1-0.1,0.2-0.3,0.2-0.4l10.8-26
			C-57,291.4-59.1,286.3-63.6,284.4z M-112.2,251.7l1.1-1.8l30.2,19.7L-112.2,251.7z M-103.2,275.5c-1-0.1-2.1-1.1-2.3-2.2l-0.3-1.9
			l10.9,1.3l-0.8,1.8c-0.3,0.7-1.1,1.3-1.9,1.5l-1.8-1.5l-1.3,1.3L-103.2,275.5z"/>
		<path class="st1" d="M-114.4,245.1c0.3-0.4,0.2-1-0.2-1.3c-0.4-0.3-1-0.2-1.3,0.2c-2.6,3.5-4.6,7.3-6.1,11.4
			c-1.6,4.3-2.5,8.8-2.7,13.4c0,0.4,0.2,0.8,0.6,0.9c0.1,0,0.2,0,0.3,0.1c0.5,0,0.9-0.4,0.9-0.9c0.2-4.4,1.1-8.7,2.6-12.8
			C-118.8,252.1-116.8,248.4-114.4,245.1z"/>
		<path class="st1" d="M-77.3,274.5c-0.4,0.3-0.4,0.9-0.1,1.3c0.1,0.1,0.2,0.2,0.4,0.3c0.3,0.1,0.6,0.1,0.8-0.1
			c0.1-0.1,1-0.8,1.7-2.8c0.7-2,0.5-3,0.4-3.2c-0.1-0.5-0.6-0.7-1.1-0.6c-0.5,0.1-0.7,0.6-0.6,1.1c0,0.1,0.1,0.7-0.4,2.1
			C-76.7,273.9-77.3,274.5-77.3,274.5z"/>
		<path class="st1" d="M-125,245.4c-0.3,0.1-0.6,0.2-1,0.3c-0.4,0.1-0.9,0.2-1.3,0.5c-0.4,0.2-0.9,0.5-1.4,0.9
			c-0.5,0.3-0.9,0.8-1.4,1.2c-0.4,0.5-1,0.9-1.3,1.5c-0.4,0.6-0.8,1.2-1.1,1.8c-0.2,0.7-0.5,1.3-0.7,2c-0.3,0.6-0.3,1.3-0.4,2
			c-0.1,0.7-0.2,1.3-0.1,1.9c0.1,0.6,0.1,1.2,0.2,1.7c0,0.5,0.2,0.9,0.4,1.3c0.2,0.4,0.3,0.7,0.4,1c0.2,0.5,0.4,0.8,0.4,0.8
			s0-0.3,0-0.9c0-0.6-0.2-1.4-0.1-2.4c0.1-0.5,0.1-1,0.1-1.5c0-0.5,0.2-1.1,0.3-1.6c0.1-0.6,0.2-1.2,0.5-1.7
			c0.2-0.6,0.5-1.1,0.7-1.7c0.3-0.5,0.6-1.1,0.9-1.6c0.3-0.5,0.7-1,1.1-1.4c0.4-0.4,0.7-1,1.1-1.3c0.4-0.3,0.8-0.7,1.1-1
			c0.7-0.7,1.4-1,1.9-1.4c0.5-0.3,0.8-0.5,0.8-0.5S-124.4,245.3-125,245.4z"/>
		<path class="st1" d="M-131.1,240.3c1.2-0.9,2.3-1.7,3.2-2.1c0.8-0.4,1.3-0.7,1.3-0.7s-0.5,0.1-1.4,0.4c-0.5,0.1-1,0.3-1.6,0.6
			c-0.6,0.2-1.3,0.5-2,0.9c-0.7,0.4-1.5,0.8-2.2,1.4c-0.8,0.5-1.5,1.2-2.2,1.9c-0.7,0.8-1.4,1.5-2,2.4c-0.7,0.9-1.2,1.8-1.7,2.8
			c-0.4,1-0.9,2-1.2,3.1c-0.4,1-0.5,2.1-0.7,3.1c-0.1,1-0.2,2-0.2,3c0,0.9,0.1,1.8,0.2,2.6c0.1,0.8,0.3,1.5,0.5,2.2
			c0.2,0.6,0.3,1.2,0.5,1.6c0.3,0.9,0.6,1.3,0.6,1.3s-0.1-0.5-0.2-1.4c-0.1-0.5-0.2-1-0.2-1.6c0-0.6-0.1-1.3-0.1-2.1
			c0-0.8,0-1.6,0.1-2.5c0-0.9,0.3-1.8,0.4-2.7c0.2-0.9,0.4-1.9,0.8-2.8c0.3-1,0.7-1.9,1.1-2.8c0.5-0.9,0.9-1.8,1.5-2.6
			c0.5-0.8,1.2-1.6,1.8-2.3c0.7-0.7,1.2-1.4,1.9-2C-132.4,241.3-131.8,240.7-131.1,240.3z"/>
		<path class="st1" d="M-138.3,235.5c0.5-0.4,0.9-0.8,1.3-1.2c0.5-0.3,0.9-0.7,1.4-1c0.9-0.7,1.7-1.2,2.5-1.6c0.7-0.5,1.4-0.9,2-1.1
			c1.1-0.6,1.8-0.9,1.8-0.9s-0.7,0.2-1.9,0.6c-0.6,0.2-1.4,0.4-2.2,0.8c-0.8,0.4-1.8,0.7-2.7,1.4c-0.5,0.3-1,0.6-1.5,0.9
			c-0.5,0.4-1,0.7-1.5,1.1c-1.1,0.7-2,1.7-3.1,2.7c-0.9,1.1-2,2.1-2.8,3.4c-0.9,1.2-1.6,2.5-2.3,3.8c-0.6,1.4-1.2,2.8-1.6,4.2
			c-0.5,1.4-0.7,2.9-1,4.2c-0.1,1.4-0.3,2.8-0.3,4.1c0,0.6,0,1.3,0,1.9c0.1,0.6,0.1,1.2,0.2,1.7c0.1,1.1,0.3,2.1,0.6,3
			c0.2,0.9,0.4,1.6,0.7,2.2c0.5,1.2,0.7,1.9,0.7,1.9s-0.1-0.7-0.4-2c-0.2-0.6-0.3-1.4-0.3-2.3c-0.1-0.9-0.2-1.9-0.2-2.9
			c0-0.5,0-1.1,0-1.7c0-0.6,0.1-1.2,0.1-1.8c0-1.2,0.4-2.5,0.5-3.8c0.3-1.3,0.6-2.6,1.1-4c0.4-1.3,1-2.6,1.6-3.9
			c0.7-1.2,1.3-2.5,2.2-3.6c0.7-1.2,1.7-2.2,2.5-3.3C-140.1,237.3-139.3,236.2-138.3,235.5z"/>
	</g>
</g>
</svg>
