<?xml version="1.0" encoding="UTF-8" standalone="no"?>
<svg width="200px" height="200px" viewBox="0 0 200 200" version="1.1" xmlns="http://www.w3.org/2000/svg" xmlns:xlink="http://www.w3.org/1999/xlink">
    <!-- Generator: Sketch 39.1 (31720) - http://www.bohemiancoding.com/sketch -->
    <title>icon-home-01</title>
    <desc>Created with Sketch.</desc>
    <defs></defs>
    <g id="Page-1" stroke="none" stroke-width="1" fill="none" fill-rule="evenodd">
        <g id="icon-home-01">
            <circle id="Oval" fill="#E74C3C" cx="100" cy="100" r="100"></circle>
            <path d="M82.7,156.8 L99.4,140.1 L99.5,140 L135.3,140 C142.5,140 148.3,134.2 148.3,127 L148.3,74 C148.3,66.8 142.5,61 135.3,61 L65,61 C57.8,61 52,66.8 52,74 L52,127 C52,134.2 57.8,140 65,140 L78.2,140 L78.2,155 C78.2,157.3 81,158.5 82.7,156.8 L82.7,156.8 Z M117.5,94.8 C120.7,94.8 123.2,97.4 123.2,100.5 C123.2,103.7 120.6,106.2 117.5,106.2 C114.3,106.2 111.8,103.6 111.8,100.5 C111.7,97.3 114.3,94.8 117.5,94.8 L117.5,94.8 Z M100.1,94.8 C103.3,94.8 105.8,97.4 105.8,100.5 C105.8,103.7 103.2,106.2 100.1,106.2 C96.9,106.2 94.4,103.6 94.4,100.5 C94.4,97.3 96.9,94.8 100.1,94.8 L100.1,94.8 Z M77,100.5 C77,97.3 79.6,94.8 82.7,94.8 C85.9,94.8 88.4,97.4 88.4,100.5 C88.4,103.7 85.8,106.2 82.7,106.2 C79.6,106.2 77,103.6 77,100.5 L77,100.5 Z" id="Shape" fill="#FFFFFF"></path>
        </g>
    </g>
</svg>