<!DOCTYPE svg PUBLIC "-//W3C//DTD SVG 1.1//EN" "http://www.w3.org/Graphics/SVG/1.1/DTD/svg11.dtd">
<svg version="1.1" id="Layer_1" xmlns="http://www.w3.org/2000/svg" xmlns:xlink="http://www.w3.org/1999/xlink" x="0px" y="0px"
	 width="200px" height="200px" viewBox="0 0 200 200" enable-background="new 0 0 200 200" xml:space="preserve">
<circle fill="#E74C3C" cx="100" cy="100" r="100"/>
<g>
	<path fill="#FFFFFF" d="M170.706,146.138l-14.256-24.649c3.742-1.619,4.434-2.916,4.434-2.916s-10.369-17.07-17.41-19.606
		c-0.723-2.796-1.333-5.688-1.471-7.852c-0.152-2.38-0.061-5.219,0.1-7.764l11.822,5.063l-1.428,13.559
		c-0.192,1.828,1.132,3.464,2.956,3.655c0.173,0.018,0.349,0.021,0.517,0.015c1.607-0.078,2.965-1.319,3.14-2.973l1.685-15.998
		c0.154-1.449-0.655-2.828-1.996-3.403l-16.221-6.949c-0.93-0.398-1.938-0.339-2.778,0.075l-11.333-0.089l-5.347-32.95
		c-0.278-1.735-1.914-2.907-3.646-2.63c-1.735,0.282-2.911,1.915-2.63,3.648l5.984,36.897c0.012,0.077,0.027,0.149,0.049,0.226
		c-0.115,4.195-0.069,10.059,0.778,14.279c0.817,4.073,2.148,7.801,3.386,10.713l-16.539,11.438c0,0,0.803,1.016,2.488,2.34
		l-0.072,0.062c-1.102,0.959-1.703,2.37-1.633,3.83l1.252,25.887c0.131,2.629,2.366,4.66,4.996,4.532
		c2.633-0.126,4.66-2.362,4.534-4.994l-1.144-23.577l1.273-1.107c4.033,1.179,9.17,1.792,15.506,0.968
		c3.66-0.473,6.75-1.008,9.357-1.569l15.393,26.611c0.92,1.602,2.633,2.463,4.361,2.377c0.734-0.035,1.475-0.242,2.152-0.636
		C171.245,151.334,172.025,148.413,170.706,146.138z"/>
	<circle fill="#FFFFFF" cx="137.528" cy="66.781" r="8.056"/>
</g>
<g>
	<circle fill="#FFFFFF" cx="63.458" cy="55.463" r="9.037"/>
	<path fill="#FFFFFF" d="M87.151,113.774L71.49,99.932l2.051-14.155l21.336-41.848l-4.924-5.95L70.612,67.314
		c-1.49-1.489-5.51-1.617-9.292-0.542v-0.004l-0.226,0.028c-0.182,0.057-0.431,0.119-0.605,0.183l-18.406,6.315
		c-1.103,0.671-1.888,1.603-2.289,2.817l-1.939,21.155l5.945,1.024l3.281-17.232l9.002-0.776L55.033,96.6
		c-0.246,2.328,0.416,4.849,1.404,6.88l-17.77,43.018l7.18,3.899l20.71-37.779c6.239,4.392,12.775,8.56,12.775,8.56l0.363,30.244
		l7.795-1.438l2.839-29.042C90.606,118.375,89.251,115.37,87.151,113.774z"/>
</g>
</svg>
