<?xml version="1.0" encoding="utf-8"?>
<!-- Generator: Adobe Illustrator 15.1.0, SVG Export Plug-In . SVG Version: 6.00 Build 0)  -->
<!DOCTYPE svg PUBLIC "-//W3C//DTD SVG 1.1//EN" "http://www.w3.org/Graphics/SVG/1.1/DTD/svg11.dtd">
<svg version="1.1" id="Layer_1" xmlns="http://www.w3.org/2000/svg" xmlns:xlink="http://www.w3.org/1999/xlink" x="0px" y="0px"
	 width="200.029px" height="200.471px" viewBox="0 0 200.029 200.471" enable-background="new 0 0 200.029 200.471"
	 xml:space="preserve">
<g id="_x31_POH9H_1_">
	
		<image overflow="visible" width="200" height="200" id="_x31_POH9H" xlink:href="761DF50A.jpg"  transform="matrix(1 0 0 1 0 0.4707)">
	</image>
</g>
<circle fill="#E74C3C" cx="100.029" cy="100" r="100"/>
<g>
	<path fill="#FFFFFF" d="M100.374,89.69c9.025,0,16.346-7.329,16.346-16.349c0-9.033-7.321-16.345-16.346-16.345
		S84.03,64.307,84.03,73.341C84.03,82.361,91.35,89.69,100.374,89.69z"/>
	<path fill="#FFFFFF" d="M74.77,157.316v-14.506l-14.545,4.049c-1.068,0.426-2.228,0.662-3.44,0.662
		c-5.143,0.002-9.313-4.182-9.313-9.318c0-1.936,0.587-3.727,1.59-5.212l23.334-31.995c2.533-3.47,6.07-7.336,13.531-7.336h28.21
		c7.457,0,10.997,3.867,13.527,7.336l23.331,31.995c1.003,1.485,1.595,3.276,1.595,5.212c0,5.137-4.175,9.32-9.314,9.32
		c-1.211,0-2.375-0.238-3.439-0.664l-14.551-4.045v14.502H74.77z M100.03,147.184L100.03,147.184l18.849-6.236l-0.426-0.119
		c-13.005-3.828-7.941-21.009,5.062-17.174l1.778,0.598V104.85l-25.263,8.254l-25.263-8.254v19.403l1.769-0.599
		c13.014-3.835,18.075,13.348,5.063,17.178l-0.418,0.115L100.03,147.184L100.03,147.184z"/>
	<g>
		<path fill="#FFFFFF" d="M59.629,83.947c0.58,1.247,1.979,2.052,3.562,2.052h0.004c1.58,0,2.979-0.805,3.561-2.052l0.401-0.863
			h-7.931L59.629,83.947z"/>
		<path fill="#FFFFFF" d="M67.523,78.364l-8.63-0.001c-0.589,0.001-0.948,0.261-1.145,0.478c-0.25,0.275-0.387,0.65-0.385,1.054
			c-0.002,0.433,0.152,0.828,0.431,1.106c0.279,0.28,0.66,0.428,1.102,0.428h8.627c0.903,0,1.532-0.63,1.532-1.533
			C69.054,78.994,68.427,78.364,67.523,78.364z"/>
		<path fill="#FFFFFF" d="M68.713,73.84H57.705c-0.901,0.002-1.53,0.632-1.53,1.534c0,0.903,0.631,1.532,1.53,1.532h11.006
			c0.903,0,1.532-0.631,1.532-1.531c0.003-0.433-0.152-0.826-0.43-1.106C69.532,73.988,69.152,73.84,68.713,73.84z"/>
		<path fill="#FFFFFF" d="M73.205,46.728c-2.611-2.607-6.089-4.044-9.79-4.044c-7.614,0-13.812,6.195-13.812,13.811
			c0,3.728,1.547,7.352,4.193,9.896c0.687,0.822,1.109,1.933,1.253,5.174c0.047,1.026,0.789,1.743,1.901,1.743
			c0.003,0,0.005,0,0.007,0c0.513-0.022,0.972-0.227,1.293-0.577c0.319-0.347,0.476-0.808,0.451-1.329
			c-0.167-3.758-0.766-5.783-2.247-7.518c-2.03-1.936-3.195-4.629-3.195-7.389c0-5.6,4.554-10.155,10.153-10.155
			c5.616,0,10.184,4.557,10.184,10.155c0,2.76-1.165,5.455-3.238,7.438c-1.438,1.687-2.035,3.71-2.202,7.472
			c-0.047,1.058,0.687,1.859,1.742,1.906l0.096,0.002c1.021,0,1.767-0.718,1.812-1.747c0.145-3.241,0.569-4.351,1.208-5.125
			c2.696-2.595,4.241-6.219,4.24-9.946C77.252,52.802,75.814,49.335,73.205,46.728z M69.99,72.696L69.99,72.696l0.001,0.009
			L69.99,72.696z"/>
	</g>
</g>
</svg>
