<?xml version="1.0" encoding="utf-8"?>
<!-- Generator: Adobe Illustrator 15.1.0, SVG Export Plug-In . SVG Version: 6.00 Build 0)  -->
<!DOCTYPE svg PUBLIC "-//W3C//DTD SVG 1.1//EN" "http://www.w3.org/Graphics/SVG/1.1/DTD/svg11.dtd">
<svg version="1.1" id="Layer_1" xmlns="http://www.w3.org/2000/svg" xmlns:xlink="http://www.w3.org/1999/xlink" x="0px" y="0px"
	 width="200px" height="200px" viewBox="0 0 200 200" enable-background="new 0 0 200 200" xml:space="preserve">
<circle fill="#E74C3C" cx="100" cy="100" r="100"/>
<g>
	<g>
		<rect x="35.731" y="50.829" fill="#E74C3C" width="110" height="76.145"/>
		<path fill="#FFFFFF" d="M143.731,52.829v72.145h-106V52.829H143.731 M147.731,48.829h-4h-106h-4v4v72.145v4h4h106h4v-4V52.829
			V48.829L147.731,48.829z"/>
	</g>
	<g>
		<rect x="46" y="59.611" fill="#E74C3C" width="110" height="76.145"/>
		<path fill="#FFFFFF" d="M154,61.611v72.145H48V61.611H154 M158,57.611h-4H48h-4v4v72.145v4h4h106h4v-4V61.611V57.611L158,57.611z"
			/>
	</g>
	<g>
		<rect x="56" y="69.106" fill="#E74C3C" width="110" height="76.145"/>
		<path fill="#FFFFFF" d="M164,71.106v72.145H58V71.106H164 M168,67.106h-4H58h-4v4v72.145v4h4h106h4v-4V71.106V67.106L168,67.106z"
			/>
	</g>
	<g>
		<path fill="none" d="M139.055,140.043c-5.016,0.652-9.08,0.167-12.272-0.767l-1.009,0.877l0.345,7.097h25.229l-4.887-8.449
			C144.396,139.246,141.951,139.669,139.055,140.043z"/>
		<path fill="none" d="M33.703,60.963v86.287H82.91c0.032-1.646-0.04-2.74-0.042-2.767l-2.192-19.353l-5.106,5.537l-0.067,0.074
			c-1.032,1.039-2.695,1.083-3.781,0.082c-0.089-0.082-0.162-0.175-0.237-0.266c-0.027-0.023-0.058-0.039-0.084-0.062l-9.423-8.696
			c-0.666-0.615-0.691-1.661-0.076-2.327l1.477-1.601c0.615-0.667,1.643-0.708,2.309-0.093l7.74,7.143l6.947-7.534
			c0.104-0.112,0.223-0.201,0.348-0.278c0.321-0.277,0.726-0.465,1.182-0.518l14.634-1.658c0.103-0.012,0.203-0.006,0.303-0.004
			l8.147-6.93l5.734-11.424c0.406-0.811,1.404-1.123,2.215-0.716l1.947,0.977c0.811,0.406,1.134,1.383,0.727,2.193l-5.752,11.46
			c-0.065,0.131-0.146,0.246-0.229,0.361c-0.148,0.33-0.361,0.638-0.645,0.897c-0.025,0.023-0.031,0.061-0.059,0.083l-9.618,8.18
			l2.528,22.319v0.001l0.145,1.27c0.121,0.885,0.336,2.17,0.695,3.648h15.881l-0.414-8.56c-0.055-1.155,0.421-2.272,1.293-3.031
			l0.057-0.049c-1.334-1.048-1.969-1.852-1.969-1.852l13.091-9.053c-0.979-2.305-2.033-5.255-2.681-8.479
			c-0.67-3.34-0.707-7.98-0.615-11.301c-0.018-0.061-0.029-0.119-0.039-0.18l-4.736-29.203c-0.223-1.372,0.708-2.664,2.082-2.887
			c1.371-0.22,2.664,0.708,2.885,2.082l4.232,26.079l8.97,0.07c0.665-0.328,1.464-0.375,2.198-0.06l12.839,5.5
			c1.062,0.455,1.702,1.547,1.58,2.693l-1.333,12.662c-0.139,1.309-1.213,2.291-2.485,2.353c-0.134,0.005-0.272,0.003-0.409-0.012
			c-1.443-0.151-2.491-1.446-2.339-2.894l1.13-10.731l-9.357-4.007c-0.127,2.014-0.199,4.26-0.078,6.145
			c0.108,1.713,0.592,4.001,1.164,6.215c5.572,2.006,13.779,15.517,13.779,15.517s-0.547,1.026-3.51,2.309l6.174,10.673h17.887
			V60.963H33.703z M101.667,108.316c-1.605,0.554-3.944,0.091-5.26-0.985c-0.46,3.365-2.967,6.132-6.333,6.647
			c-0.483,0.073-0.961,0.094-1.432,0.073c-0.019-0.001-0.039,0-0.057-0.001c-0.052-0.003-0.104-0.009-0.156-0.013
			c-3.016-0.16-5.641-2.18-6.731-5.064c-1.041,1.344-3.218,2.318-4.906,2.138c-2.191-0.235-3.717-3.181-3.717-3.181
			c2.317,1.628,3.814,1.69,4.935,0.927c-0.743,0.071-1.482,0.028-2.111-0.183c-2.101-0.702-3.013-3.91-3.013-3.91
			c4.844,5.199,6.647-0.113,9.8-3.533c0.106-0.137,0.214-0.271,0.327-0.401c-0.002,0.015-0.004,0.029-0.006,0.044
			c1.257-1.506,3.062-2.514,5.128-2.666c0.316-0.023,0.628-0.02,0.937-0.003c1.56,0.052,3.033,0.601,4.25,1.525
			c-0.005-0.014-0.011-0.028-0.016-0.042c0.139,0.102,0.276,0.208,0.41,0.32c3.837,2.627,6.783,7.399,10.339,1.249
			c0,0-0.171,3.331-2.062,4.486c-0.566,0.346-1.275,0.553-2.016,0.649c1.264,0.493,2.708,0.097,4.602-2.009
			C104.578,104.383,103.75,107.597,101.667,108.316z M138.917,99.653c-3.521,0-6.376-2.855-6.376-6.376
			c0-3.522,2.854-6.376,6.376-6.376c3.522,0,6.376,2.854,6.376,6.376C145.293,96.798,142.439,99.653,138.917,99.653z"/>
		<path fill="#FFFFFF" d="M157.402,134.269c0,0-8.207-13.511-13.779-15.517c-0.572-2.214-1.056-4.502-1.164-6.215
			c-0.121-1.885-0.049-4.131,0.078-6.145l9.357,4.007l-1.13,10.731c-0.152,1.447,0.896,2.742,2.339,2.894
			c0.137,0.015,0.275,0.017,0.409,0.012c1.272-0.062,2.347-1.044,2.485-2.353l1.333-12.662c0.122-1.146-0.519-2.238-1.58-2.693
			l-12.839-5.5c-0.734-0.315-1.533-0.269-2.198,0.06l-8.97-0.07l-4.232-26.079c-0.221-1.374-1.514-2.301-2.885-2.082
			c-1.374,0.223-2.305,1.515-2.082,2.887l4.736,29.203c0.01,0.061,0.021,0.119,0.039,0.18c-0.092,3.32-0.055,7.961,0.615,11.301
			c0.647,3.225,1.701,6.175,2.681,8.479l-13.091,9.053c0,0,0.635,0.804,1.969,1.852l-0.057,0.049
			c-0.872,0.759-1.348,1.876-1.293,3.031l0.414,8.56h7.56l-0.345-7.097l1.009-0.877c3.192,0.934,7.257,1.419,12.272,0.767
			c2.896-0.374,5.342-0.798,7.406-1.242l4.887,8.449h8.719l-6.174-10.673C156.855,135.295,157.402,134.269,157.402,134.269z"/>
		<circle fill="#FFFFFF" cx="138.917" cy="93.277" r="6.376"/>
		<path fill="#FFFFFF" d="M101.838,142.333L101.838,142.333l-2.528-22.32l9.618-8.18c0.027-0.022,0.033-0.06,0.059-0.083
			c0.283-0.26,0.496-0.567,0.645-0.897c0.082-0.115,0.163-0.23,0.229-0.361l5.752-11.46c0.407-0.81,0.084-1.787-0.727-2.193
			l-1.947-0.977c-0.811-0.407-1.809-0.095-2.215,0.716L104.988,108l-8.147,6.93c-0.101-0.002-0.201-0.008-0.303,0.004l-14.634,1.658
			c-0.456,0.053-0.86,0.24-1.182,0.518c-0.125,0.077-0.243,0.166-0.348,0.278l-6.947,7.534l-7.74-7.143
			c-0.667-0.615-1.694-0.574-2.309,0.093l-1.477,1.601c-0.615,0.666-0.59,1.712,0.076,2.327l9.423,8.696
			c0.026,0.023,0.057,0.039,0.084,0.062c0.076,0.091,0.148,0.184,0.237,0.266c1.085,1.001,2.749,0.957,3.781-0.082l0.067-0.074
			l5.106-5.537l2.192,19.353c0.002,0.026,0.074,1.12,0.042,2.767h19.768c-0.359-1.479-0.574-2.764-0.695-3.648L101.838,142.333z"/>
		<path fill="#FFFFFF" d="M99.977,106.392c0.74-0.097,1.449-0.304,2.016-0.649c1.891-1.155,2.062-4.486,2.062-4.486
			c-3.557,6.15-6.502,1.378-10.339-1.249c-0.134-0.111-0.271-0.218-0.41-0.32c0.005,0.015,0.011,0.028,0.016,0.042
			c-1.216-0.924-2.689-1.473-4.25-1.525c-0.309-0.017-0.621-0.021-0.937,0.003c-2.066,0.152-3.871,1.16-5.128,2.666
			c0.002-0.015,0.004-0.029,0.006-0.044c-0.113,0.129-0.221,0.264-0.327,0.401c-3.152,3.42-4.956,8.732-9.8,3.533
			c0,0,0.912,3.208,3.013,3.91c0.629,0.211,1.368,0.254,2.111,0.183c-1.121,0.764-2.618,0.701-4.935-0.927
			c0,0,1.526,2.945,3.717,3.181c1.688,0.181,3.865-0.794,4.906-2.138c1.091,2.885,3.715,4.904,6.731,5.064
			c0.052,0.004,0.104,0.01,0.156,0.013c0.019,0.001,0.038,0,0.057,0.001c0.471,0.021,0.949,0,1.432-0.073
			c3.366-0.516,5.873-3.282,6.333-6.647c1.315,1.076,3.655,1.539,5.26,0.985c2.083-0.719,2.911-3.933,2.911-3.933
			C102.685,106.489,101.24,106.885,99.977,106.392z"/>
	</g>
</g>
</svg>
